<svg xmlns="http://www.w3.org/2000/svg" viewBox="0 0 643.42 325.97"><defs><style>.cls-1{fill:#5d75ac;}.cls-2{fill:#fff;}.cls-3{fill:#fdfdfd;}.cls-4{fill:#010101;}.cls-5{fill:#020202;}.cls-6{fill:#08172f;}.cls-7{fill:#09172f;}.cls-8{fill:#091830;}.cls-9{fill:#0a1930;}.cls-10{fill:#0c1b32;}.cls-11{fill:#09182f;}</style></defs><title>Asset 1</title><g id="Layer_2" data-name="Layer 2"><g id="Layer_1-2" data-name="Layer 1"><path class="cls-1" d="M441,68.61a131.53,131.53,0,0,1,12.15-8.3A142.86,142.86,0,0,1,498.87,43c10.49-2.05,32.23-6.07,59.14.4,11.66,2.8,33.91,8.14,53.62,27.51a102,102,0,0,1,28.29,52.5c6.85,33.52,3.76,66.16-10.32,97.57-12.45,27.76-32.72,47.08-62.07,56.54-8.66,2.78-17.18,6.6-26.07,7.95a127.39,127.39,0,0,1-62.68-5.95C466.23,275,432.41,263,412.57,229,397.9,203.86,398,179,398.23,167.2a131.12,131.12,0,0,1,5.14-34,58,58,0,0,0,14-8.5C439.8,106.13,440.88,76.1,441,68.61Zm66.8,21.89-12.34,5.93c-8.91-.76-17.42.08-24.58,6.2-16.17.89-21.54,6.06-20.71,24.65a148,148,0,0,0,2.63,22.51c2.86,14.25,5.84,28.51,9.76,42.49,2.6,9.27,3.84,9.34,14,8.08,35.56-4.42,68.72-16.55,101-31.29a70,70,0,0,0,6.72-3.6c5.16-3.06,6.8-7,3.34-12.48s-7-11.17-10.27-16.86c-9.62-16.65-19.3-33.26-28.61-50.08-2.12-3.84-3.75-5.7-8-3a96.82,96.82,0,0,1-9,4.5C522.7,80.3,515.26,85.71,507.75,90.5Zm22.79,159.13c19.72,2.68,42.66-20.42,44.69-44.58.55-6.55-5.24-10.66-12.18-8.17-20.46,7.35-40.82,15-61,23.15-8.44,3.41-9.39,8.39-3.26,15C507,243.92,517.07,249.49,530.54,249.63Z"/><path class="cls-2" d="M52.45,22.8c35.52.55,64,26,51.91,67.76-4.31,14.89-16.85,23.71-30.59,30.27A52.64,52.64,0,0,1,65.21,124c-5.12,1.43-5.94,4.19-4.41,9.15a178.92,178.92,0,0,1,6.06,25c.64,4.18.54,10.06-1.91,12.84-8.25,9.38-20,13.58-31.88,16-5.8,1.19-12.8-7.47-14.1-15.68-3-19-5.49-38-8.7-57C8,101,4.71,87.68,2.21,74.26,1.1,68.3.84,62.2.15,56.17c-.93-8,2.48-13.5,9.5-17.39C23.86,30.9,37.3,21.06,52.45,22.8ZM74.93,80.64c-.25-6.74-.88-23.55-13.21-33.21-.78-.61-10.22-7.8-17.11-5.08-6.2,2.44-3.8,8-3,11.74,3.45,15.74,7.8,31.27,11.51,47,1.22,5.14,3.94,4.88,7.84,3.46,2.89-1.06,6.74-2.5,9.59-5.49C75.33,94,75.17,86.91,74.93,80.64Z"/><path class="cls-2" d="M132.81,187.64c.39-8.38,2.1-13.56,8.39-18.06,19.7-14.09,40.82-19.28,63-7.2C227.49,175,238,195.78,237,221.81c-.53,13.93-9.26,23.76-21.08,29.81-9.41,4.82-19.86,7.8-30.07,10.87-9.65,2.9-9.81,2.48-9.75,12.81.05,8.14.54,16.29.18,24.41a50.15,50.15,0,0,1-2.7,14.86c-3.36,9.15-9.49,12.34-19.29,11.17-8.76-1.05-13.41-5.23-14.48-14.95q-2.64-24.19-4.06-48.52c-1.07-18.26-1.49-36.56-2.19-54.84m65.63,7.26a86.68,86.68,0,0,0-2.66-21.94c-1.27-5.06-1.94-7.63-3.66-9.74-4.48-5.52-12.29-7.08-17.71-5.71-3.06.77-4.14,2.16-4.42,2.56-1.1,1.61-1,3.78-.73,6.46,1.86,16.62,3.29,33.3,5.19,49.92.21,1.82,2.28,4.72,3.75,4.89,7.62.87,14.22-3,16.85-10.28C197.65,225.72,199.19,221,199.19,214.69Z"/><path class="cls-2" d="M366.66,114.94c-.67,1.29-7.22,13.33-21.61,15.59-8.7,1.37-19.43-1-25.37-8.28-8.42-10.35-4.71-27.56-1.58-42,2.75-12.75,7.43-23.74,3.11-27.08a5.89,5.89,0,0,0-4.43-.81,39.33,39.33,0,0,0-5.7,3.68,40.85,40.85,0,0,0-9.32,10.44,41.78,41.78,0,0,0-5.64,19.85c-.49,10.09-1.84,20.16-3.25,30.17-1.09,7.71-12,16.08-19.81,15.83A11.92,11.92,0,0,1,262,121.57a96.7,96.7,0,0,1,.3-18.24c1.45-14.09,3.23-28.15,5.09-42.19.93-7-1.15-5.93-5.65-2.83C257.7,61.1,253,61.08,249.34,57c-4-4.42-1.86-8.49,1-12.33,7.37-9.81,17.63-15.22,29.24-18.19,6.56-1.69,13.18-.06,15.51,6.46,3.5,9.78,7,5.93,12.33,1.85,7.34-5.57,15.6-9.53,25.41-8.94,11.5.68,16.21,5.11,18.78,16.07,3.56,15.14.71,29.36-1.25,39.22-.47,2.4-1.76,8.53-2.79,17.05-.34,2.8-.56,5.09-.69,6.56a5.36,5.36,0,0,0,2.82,1.47c5.32.83,8.73-7.68,13.28-6.81,3.52.67,4.94,6.5,5.05,7A11.82,11.82,0,0,1,366.66,114.94Z"/><path class="cls-2" d="M239.25,62.8c-1.89,7.82-3.66,15.67-5.71,23.45-1.42,5.38-3.41,10.6-4.77,16-.86,3.4-.52,5.77,4.36,3.87,4.24-1.65,9-.26,10,4.17,1.2,5.29-1.16,11.64-1.67,12.51-5.83,10-20.92,14.32-27.57,9.57-1.52-1.09-1.18-1.64-2.8-2.71-4.91-3.24-9.58.85-18.93,1-2.84,0-11.38.09-17.19-5.48a18,18,0,0,1-4.17-6.17c-3.64-8.65-2.22-17.88,4-25.68,5.72-7.1,13.39-10.5,22.22-12.19,9.37-1.79,17.9-15.33,14.8-23.8a6.35,6.35,0,0,0-2.9-2.21,9.24,9.24,0,0,0-4.13-.59c-5,.46-13.07,7.16-18.94,12-6.78,5.62-10.28,7.06-14.2,3.39s-4.23-11.55.27-16.7a52.39,52.39,0,0,1,32.72-18c2-.3,4.1,0,6.12-.22C230.59,32.94,239.56,45.64,239.25,62.8ZM191,111.91a18.65,18.65,0,0,0,6.95-.14c2-.43,4.06-.86,5.67-2.37,3.3-3.09,4.06-10,.89-12.13-2.15-1.46-5.35-.21-6.25.18a15.26,15.26,0,0,0-5.34,3,13.23,13.23,0,0,0-4.31,8.26A3.24,3.24,0,0,0,191,111.91Z"/><path class="cls-2" d="M377.64,256.14a3.68,3.68,0,0,1,.23.42c.45.91,1,2.89.06,7.42-2.05,9.64-6.78,17.91-14.82,24-2.5,1.89-8.48,5.88-16.48,5.06a21.11,21.11,0,0,1-12.76-6c-3.16-3.28-5-7.64-5.81-18.23-1.49-18.6,1.42-38,1.61-39.19,1-6.43,2.91-16.85-.93-19a12.24,12.24,0,0,0-4.47-1,40,40,0,0,1-6.06.47c-7.27-.33-11.94-3.57-12.12-8.8-.22-6.64,5-7.75,10-9.22,4.43-1.28,10.37,2,13.21-4.16.88-5.49,1.8-11,2.64-16.48,1.26-8.26,5.53-13.1,13-14.66,8.84-1.84,15.11,2.21,16.49,11.2.52,3.4,0,7-.44,10.47s-.45,6.28,1.15,7.85c1,1,2,.78,6.47,1.14,5.72.45,8.61.71,10.12,2.1,2.53,2.34,2.26,6.38,2.2,7.25a11.87,11.87,0,0,1-2.34,6.09c-4.55,5.63-12.56,1.24-18.12,5.16-4.42,3.11-3.21,8.46-4.22,28.15-.94,18.45-3.33,29,.2,30.3.94.36,1.87-.1,3.28-.8,6.75-3.33,5.78-11.07,10.55-12.26C372.64,252.91,376.23,253.92,377.64,256.14Z"/><path class="cls-2" d="M251,269c-11.19-19.14-4.6-39.92-2.89-46.8,1.31-5.28,4.25-10.31,7.16-15,3.06-4.95,7.95-10.95,16.47-13.44a28,28,0,0,1,19.75,2,27.38,27.38,0,0,1,6.8,4.86,52.7,52.7,0,0,1,8.08,15.31c2,6.11,3.86,11.67,1.46,17.23-.59,1.34-1.92,3.88-7.18,7.75a56.31,56.31,0,0,1-22.24,9.65,20.85,20.85,0,0,0,3.11,6.44c1.46,2,3.7,5.15,7.15,6,5.05,1.17,9.87-3.32,10.75-4.15,5.86-5.46,4.13-11.45,9.83-14.31a10.27,10.27,0,0,1,5.93-1.06,10.1,10.1,0,0,1,5.76,2.88,10.93,10.93,0,0,1,2.94,6.89c.15,1.6.15,4.59-2.8,10.12a45,45,0,0,1-12.28,14.36,47.59,47.59,0,0,1-12.94,7c-5,1.74-15.69,5.51-26.76,1.41C258.72,282.09,253.59,273.32,251,269Zm24.39-45.08a5,5,0,0,0,1.06,3c2.13,2.18,7.72.46,10.83-2.3a6.21,6.21,0,0,0,1.73-2.22c1.23-3-.91-6.08-1.15-6.41a6.76,6.76,0,0,0-4.5-3c-2.94-.29-6.16,2.18-7.36,6.18A9.24,9.24,0,0,0,275.43,223.89Z"/><path class="cls-2" d="M120.65,113.8c2-15.33,3-30,6.25-44.26,1.28-5.63,6.72-11.46,11.84-14.8,7.47-4.87,17.1.19,18.45,9.36.94,6.35.11,13.1-.83,19.54S153,96.36,151.84,102.8c-1,5.58-3.55,12,7.81,9.21,6.16-1.54,9.56,5.79,7.35,13.22-2.71,9.08-14.92,17.62-24.7,17.28-10-.35-17.59-6.64-20.35-17.45C121,121.19,121,117.06,120.65,113.8Z"/><path class="cls-2" d="M145.13,7.44C155.82,7.29,161,12.54,161,23.38c-.06,9.79-8,17.91-17.12,17.58-8-.29-15.25-7.74-15.58-16C127.86,14.91,134.92,7.58,145.13,7.44Z"/><path class="cls-3" d="M495.41,96.43l12.34-5.93c5.92,17.13,13.15,33.94,17.43,51.46,5.1,20.86,6.55,17,23.39,11.79,2.88-.88,5.54-2.51,8.28-3.84,3.93-1.89,4.85-5,3.18-8.8-1.47-3.33-1.78-5.16-4.17-8.09-2.54-3.11-8.87-14.11-25.08-47.49,7.15-3.89,12.47-4,15.72-3.5,18,2.49,19.08,27.25,39,60.47,1.63,2.71,6.75,11.08,3.78,17.16a14.34,14.34,0,0,1-5,5.81,70,70,0,0,1-6.72,3.6c-32.32,14.74-65.48,26.87-101,31.29-10.18,1.26-11.42,1.19-14-8.08-3.92-14-6.9-28.24-9.76-42.49a148,148,0,0,1-2.63-22.51c-.83-18.59,4.54-23.76,20.71-24.65-.95,18.32,2.93,36.06,7.27,53.62,5,20.35,6.88,21,26.86,13.53,8.83-3.28,11-6.2,8.59-14.44C507.78,135.63,501.49,116.06,495.41,96.43Z"/><path class="cls-4" d="M530.54,249.63c-13.47-.14-23.56-5.71-31.72-14.56-6.13-6.65-5.18-11.63,3.26-15,20.15-8.15,40.51-15.8,61-23.15,6.94-2.49,12.73,1.62,12.18,8.17C573.2,229.21,550.26,252.31,530.54,249.63Z"/><path class="cls-5" d="M495.41,96.43c6.08,19.63,12.37,39.2,18.14,58.91,2.41,8.24.24,11.16-8.59,14.44-20,7.43-21.84,6.82-26.86-13.53-4.34-17.56-8.22-35.3-7.27-53.62C478,96.51,486.5,95.67,495.41,96.43Z"/><path class="cls-2" d="M441,68.61a42,42,0,0,0-.34-4.55c-.32-2.37-1.2-8.91-5.11-14.48-5.06-7.21-12.83-9.47-16.07-10.41-2.87-.83-11.9-3.46-21,.81-4.46,2.08-7,4.9-10.4,8.74a72.77,72.77,0,0,0-12.9,22,80.59,80.59,0,0,0-5.35,30.72c.18,5.89,1,9.58,2.6,13A29.67,29.67,0,0,0,380.7,125c1.74,1.46,10.61,8.87,22.67,8.15,11.35-.67,18.75-8.12,22.26-11.66C425.63,121.5,441.48,105.54,441,68.61Zm-24.5,23.62c-3.59,5.65-11.44,10.19-16.54,7.68-6.16-3-5.92-15.11-2.23-21.87a13,13,0,0,1,5.62-5.79,12.54,12.54,0,0,1,7.56-1.08,12,12,0,0,1,6,3.81C420.94,80,419.38,87.63,416.45,92.23Z"/><path class="cls-5" d="M530.78,85.53C547,118.91,553.32,129.91,555.86,133c2.39,2.93,2.7,4.76,4.17,8.09,1.67,3.82.75,6.91-3.18,8.8-2.74,1.33-5.4,3-8.28,3.84-16.84,5.18-18.29,9.07-23.39-11.79-4.28-17.52-11.51-34.33-17.43-51.46,1.72-1.57,7.85-6.78,16.39-6.4A20.8,20.8,0,0,1,530.78,85.53Z"/><path class="cls-6" d="M58.63,15.36c35.52.56,64,26,51.91,67.76C106.23,98,93.68,106.83,80,113.4a53.59,53.59,0,0,1-8.56,3.18c-5.12,1.43-6,4.19-4.42,9.15a177.2,177.2,0,0,1,6.06,25c.65,4.18.54,10.06-1.9,12.84-8.25,9.37-20,13.57-31.88,16-5.8,1.18-12.8-7.47-14.1-15.69-3-19-5.49-38-8.7-56.95-2.28-13.45-5.56-26.73-8.06-40.15C7.28,60.87,7,54.76,6.33,48.73c-.93-8,2.48-13.49,9.5-17.39C30,23.47,43.48,13.63,58.63,15.36ZM81.11,73.2C80.86,66.47,80.23,49.66,67.9,40c-.78-.61-10.22-7.8-17.12-5.08-6.19,2.44-3.79,8-3,11.75,3.44,15.73,7.79,31.27,11.51,47,1.22,5.14,3.94,4.88,7.84,3.46,2.89-1.06,6.74-2.51,9.59-5.49C81.51,86.6,81.35,79.47,81.11,73.2Z"/><path class="cls-7" d="M139,180.21c.39-8.38,2.1-13.56,8.39-18.06,19.7-14.09,40.82-19.28,63-7.2,23.25,12.64,33.75,33.4,32.76,59.42-.54,13.94-9.27,23.77-21.08,29.81C212.69,249,202.24,252,192,255.05c-9.64,2.9-9.8,2.48-9.74,12.82.05,8.13.54,16.28.18,24.4a50,50,0,0,1-2.71,14.87c-3.35,9.14-9.49,12.33-19.28,11.16-8.76-1-13.42-5.23-14.48-14.94q-2.64-24.19-4.06-48.53c-1.07-18.26-1.49-36.55-2.19-54.83m65.63,7.25a86.74,86.74,0,0,0-2.66-21.94c-1.27-5.05-1.94-7.62-3.66-9.74-4.48-5.51-12.3-7.07-17.71-5.71-3.06.77-4.15,2.16-4.42,2.56-1.1,1.61-1,3.78-.73,6.46,1.86,16.63,3.28,33.3,5.19,49.92.2,1.82,2.28,4.73,3.75,4.9,7.62.87,14.22-3,16.85-10.28C203.83,218.29,205.37,213.54,205.37,207.25Z"/><path class="cls-6" d="M372.84,107.5c-.68,1.3-7.22,13.34-21.62,15.6-8.69,1.37-19.42-1-25.36-8.28-8.42-10.36-4.71-27.57-1.58-42C327,60,331.71,49,327.39,45.7a5.8,5.8,0,0,0-4.43-.81,38.49,38.49,0,0,0-5.7,3.68A40.27,40.27,0,0,0,307.94,59a41.74,41.74,0,0,0-5.64,19.84c-.5,10.09-1.84,20.16-3.25,30.18-1.09,7.7-12,16.07-19.81,15.82a11.92,11.92,0,0,1-11.06-10.72,97.43,97.43,0,0,1,.31-18.23c1.45-14.09,3.23-28.15,5.09-42.2.93-7-1.15-5.92-5.65-2.82-4.05,2.78-8.71,2.77-12.41-1.33-4-4.42-1.86-8.48,1-12.33C263.91,27.42,274.18,22,285.79,19c6.56-1.68,13.18-.06,15.51,6.46,3.5,9.79,6.95,5.94,12.33,1.86,7.34-5.58,15.6-9.53,25.41-9,11.5.69,16.2,5.12,18.78,16.08,3.56,15.13.71,29.36-1.25,39.22-.47,2.39-1.76,8.53-2.8,17-.33,2.79-.55,5.08-.68,6.55a5.34,5.34,0,0,0,2.81,1.48c5.33.83,8.74-7.69,13.29-6.81,3.52.67,4.94,6.49,5.05,7A11.79,11.79,0,0,1,372.84,107.5Z"/><path class="cls-7" d="M245.43,55.37c-1.89,7.82-3.66,15.67-5.71,23.45-1.42,5.37-3.41,10.6-4.77,16-.86,3.39-.53,5.77,4.36,3.87,4.24-1.65,9-.26,10,4.16,1.2,5.3-1.16,11.65-1.67,12.52-5.83,10-20.93,14.32-27.57,9.56-1.53-1.09-1.18-1.63-2.8-2.7-4.92-3.24-9.58.84-18.93,1-2.84,0-11.38.09-17.19-5.48a18.06,18.06,0,0,1-4.17-6.17c-3.64-8.66-2.23-17.89,4-25.68,5.72-7.11,13.39-10.51,22.22-12.2,9.37-1.79,17.9-15.32,14.8-23.79a6.41,6.41,0,0,0-2.9-2.22,9.24,9.24,0,0,0-4.13-.59c-5,.47-13.07,7.16-18.94,12-6.78,5.62-10.29,7.07-14.2,3.39s-4.23-11.54.26-16.69a52.5,52.5,0,0,1,32.73-18c2-.29,4.1,0,6.12-.22C236.77,25.51,245.74,38.21,245.43,55.37ZM197.2,104.48a19,19,0,0,0,6.94-.14c2-.43,4.06-.86,5.68-2.37,3.3-3.1,4.05-10,.89-12.14-2.15-1.46-5.35-.21-6.26.18a15.28,15.28,0,0,0-5.33,3,13.14,13.14,0,0,0-4.31,8.25A3.23,3.23,0,0,0,197.2,104.48Z"/><path class="cls-8" d="M383.82,248.71a3.63,3.63,0,0,1,.23.41c.45.91,1,2.9.06,7.43-2.05,9.64-6.79,17.9-14.82,24-2.5,1.9-8.49,5.88-16.48,5.06a21,21,0,0,1-12.76-5.95c-3.16-3.28-5-7.64-5.81-18.23-1.5-18.6,1.42-38,1.6-39.2,1-6.42,2.91-16.85-.93-19a12.16,12.16,0,0,0-4.47-1,41.09,41.09,0,0,1-6.05.47c-7.27-.33-11.94-3.57-12.12-8.8-.23-6.64,5-7.75,10-9.22,4.42-1.29,10.37,2,13.21-4.17.88-5.49,1.8-11,2.64-16.47,1.26-8.27,5.53-13.1,13-14.66,8.84-1.84,15.11,2.2,16.49,11.2.52,3.39,0,7-.44,10.47s-.45,6.28,1.14,7.85c1,1,2.05.78,6.48,1.13,5.72.46,8.61.71,10.12,2.11,2.53,2.34,2.26,6.37,2.2,7.25a11.88,11.88,0,0,1-2.34,6.08c-4.55,5.63-12.56,1.25-18.12,5.17-4.42,3.11-3.22,8.46-4.22,28.15-.94,18.45-3.33,29,.2,30.3.94.35,1.87-.1,3.28-.8,6.75-3.34,5.78-11.08,10.54-12.26C378.82,245.48,382.41,246.49,383.82,248.71Z"/><path class="cls-9" d="M257.22,261.53c-11.19-19.13-4.61-39.92-2.9-46.79,1.32-5.28,4.26-10.32,7.17-15,3.06-5,7.95-11,16.47-13.44a27.93,27.93,0,0,1,19.74,1.95,27.27,27.27,0,0,1,6.81,4.87,53,53,0,0,1,8.08,15.31c2,6.11,3.86,11.67,1.45,17.23-.58,1.34-1.91,3.87-7.17,7.74A56.15,56.15,0,0,1,284.63,243a21,21,0,0,0,3.11,6.44c1.46,2,3.7,5.15,7.14,5.95,5.06,1.17,9.88-3.32,10.76-4.15,5.86-5.46,4.13-11.46,9.83-14.32a10.35,10.35,0,0,1,5.93-1,10.14,10.14,0,0,1,5.75,2.87,10.85,10.85,0,0,1,2.94,6.9c.16,1.59.16,4.59-2.8,10.12A44.84,44.84,0,0,1,315,270.15a47.33,47.33,0,0,1-12.93,7c-5,1.74-15.7,5.52-26.76,1.41C264.9,274.66,259.77,265.88,257.22,261.53Zm24.39-45.07a5.05,5.05,0,0,0,1.05,3c2.14,2.19,7.73.47,10.84-2.29a6,6,0,0,0,1.72-2.22c1.24-3-.9-6.08-1.14-6.41a6.76,6.76,0,0,0-4.5-3c-2.94-.28-6.17,2.18-7.36,6.18A9.3,9.3,0,0,0,281.61,216.46Z"/><path class="cls-8" d="M126.83,106.37c2-15.33,3-30.05,6.25-44.27,1.28-5.62,6.71-11.46,11.84-14.8,7.47-4.86,17.09.2,18.45,9.36.94,6.35.11,13.11-.84,19.55S159.19,88.92,158,95.37c-1,5.58-3.55,12,7.8,9.2,6.17-1.54,9.57,5.79,7.36,13.23-2.71,9.07-14.92,17.61-24.71,17.27-10-.35-17.58-6.63-20.34-17.45C127.14,113.75,127.18,109.63,126.83,106.37Z"/><path class="cls-10" d="M151.31,0C162-.15,167.22,5.11,167.15,16c-.06,9.78-8,17.9-17.13,17.58-8-.29-15.24-7.75-15.57-16C134,7.47,141.1.15,151.31,0Z"/><path class="cls-11" d="M447.12,61.18a40.53,40.53,0,0,0-.33-4.55c-.32-2.38-1.2-8.91-5.11-14.49-5.06-7.2-12.83-9.46-16.08-10.4-2.86-.84-11.89-3.46-21,.8-4.46,2.08-7,4.9-10.4,8.75a73,73,0,0,0-12.91,22A80.91,80.91,0,0,0,375.93,94c.18,5.89,1,9.58,2.6,13a29.88,29.88,0,0,0,8.34,10.57c1.75,1.46,10.62,8.86,22.68,8.15,11.34-.67,18.75-8.13,22.26-11.67C431.81,114.06,447.66,98.11,447.12,61.18ZM422.63,84.8C419,90.45,411.18,95,406.08,92.48c-6.15-3-5.92-15.12-2.22-21.88a13,13,0,0,1,5.62-5.78A12.57,12.57,0,0,1,417,63.73a12.08,12.08,0,0,1,6,3.82C427.12,72.56,425.55,80.2,422.63,84.8Z"/></g></g></svg>